HIERARCHY
ROOT joint_Root
{
	OFFSET 0.0 0.0 0.0
	CHANNELS 6 Xposition Yposition Zposition Zrotation Xrotation Yrotation 
	JOINT Hips
	{
		OFFSET -17.1583 93.1646 452.98
		CHANNELS 6 Xposition Yposition Zposition Zrotation Xrotation Yrotation 
		JOINT Spine
		{
			OFFSET 15.7357 0.0 0.0
			CHANNELS 6 Xposition Yposition Zposition Zrotation Xrotation Yrotation 
			JOINT Chest
			{
				OFFSET 8.98455 -0.406207 0.0
				CHANNELS 6 Xposition Yposition Zposition Zrotation Xrotation Yrotation 
				JOINT Neck
				{
					OFFSET 16.3773 0.0 0.0
					CHANNELS 6 Xposition Yposition Zposition Zrotation Xrotation Yrotation 
					JOINT Head
					{
						OFFSET 6.45672 0.0 0.0
						CHANNELS 6 Xposition Yposition Zposition Zrotation Xrotation Yrotation 
						End Site
						{
							OFFSET 0.0 0.0 0.0
						}
					}
				}
				JOINT Shoulder_L
				{
					OFFSET 12.9942 -0.242716 4.98039
					CHANNELS 6 Xposition Yposition Zposition Zrotation Xrotation Yrotation 
					JOINT UpperArm_L
					{
						OFFSET 5.34809 0.0 0.0
						CHANNELS 6 Xposition Yposition Zposition Zrotation Xrotation Yrotation 
						JOINT LowerArm_L
						{
							OFFSET 24.3286 1.87007e-05 0.0
							CHANNELS 6 Xposition Yposition Zposition Zrotation Xrotation Yrotation 
							JOINT Hand_L
							{
								OFFSET 22.2916 0.0 0.0
								CHANNELS 6 Xposition Yposition Zposition Zrotation Xrotation Yrotation 
								End Site
								{
									OFFSET 0.0 0.0 0.0
								}
							}
						}
					}
				}
				JOINT Shoulder_R
				{
					OFFSET 12.9945 -0.242716 -4.98039
					CHANNELS 6 Xposition Yposition Zposition Zrotation Xrotation Yrotation 
					JOINT UpperArm_R
					{
						OFFSET -5.34813 0.0 0.0
						CHANNELS 6 Xposition Yposition Zposition Zrotation Xrotation Yrotation 
						JOINT LowerArm_R
						{
							OFFSET -24.3289 0.000322201 0.0
							CHANNELS 6 Xposition Yposition Zposition Zrotation Xrotation Yrotation 
							JOINT Hand_R
							{
								OFFSET -22.2915 -0.000108084 0.0
								CHANNELS 6 Xposition Yposition Zposition Zrotation Xrotation Yrotation 
								End Site
								{
									OFFSET 0.0 0.0 0.0
								}
							}
						}
					}
				}
			}
		}
		JOINT UpperLeg_L
		{
			OFFSET -2.19248 -6.46944 0.0
			CHANNELS 6 Xposition Yposition Zposition Zrotation Xrotation Yrotation 
			JOINT LowerLeg_L
			{
				OFFSET 39.0811 0.0 -1.23785e-05
				CHANNELS 6 Xposition Yposition Zposition Zrotation Xrotation Yrotation 
				JOINT Foot_L
				{
					OFFSET 40.9854 0.0 -1.26872e-05
					CHANNELS 6 Xposition Yposition Zposition Zrotation Xrotation Yrotation 
					JOINT Toes_L
					{
						OFFSET 11.7543 0.0 0.0
						CHANNELS 6 Xposition Yposition Zposition Zrotation Xrotation Yrotation 
						End Site
						{
							OFFSET 0.0 0.0 0.0
						}
					}
				}
			}
		}
		JOINT UpperLeg_R
		{
			OFFSET -2.19251 6.46944 0.0
			CHANNELS 6 Xposition Yposition Zposition Zrotation Xrotation Yrotation 
			JOINT LowerLeg_R
			{
				OFFSET -39.0811 -0.00228153 -0.0401928
				CHANNELS 6 Xposition Yposition Zposition Zrotation Xrotation Yrotation 
				JOINT Foot_R
				{
					OFFSET -40.9854 0.0 0.0
					CHANNELS 6 Xposition Yposition Zposition Zrotation Xrotation Yrotation 
					JOINT Toes_R
					{
						OFFSET -11.7543 0.0 0.0
						CHANNELS 6 Xposition Yposition Zposition Zrotation Xrotation Yrotation 
						End Site
						{
							OFFSET 0.0 0.0 0.0
						}
					}
				}
			}
		}
	}
}
MOTION
Frames:	4
Frame Time:	0.0333333
0.000000 0.000000 0.000000 0.000000 0.000000 -0.000000 -2.041420 92.476400 -0.246337 86.999200 2.988510 3.644880 15.735700 0.000005 -0.000001 84.607000 86.400800 -82.660300 8.984550 -0.406207 -0.000000 -0.582582 -0.818172 3.887380 16.377300 -0.000001 -0.000001 5.712530 1.180730 -1.784970 6.456720 -0.000001 -0.000000 -6.448460 -0.221070 0.858278 12.994200 -0.242716 4.980390 -93.345200 9.997550 -71.392400 5.348090 -0.000007 -0.000001 -72.789600 7.858270 -3.806590 24.328600 0.000019 0.000005 8.619760 27.756300 -18.030000 22.291600 -0.000001 0.000005 -4.506840 5.042380 6.404640 12.994500 -0.242716 -4.980390 87.454100 7.315300 -70.750700 -5.348130 -0.000001 -0.000004 -67.922900 30.562600 -6.441590 -24.328900 0.000322 -0.000009 1.234650 4.715110 -14.703400 -22.291500 -0.000108 -0.000004 -1.284270 5.310380 -0.220527 -2.192480 -6.469440 -0.000000 -176.916000 1.370310 -1.673460 39.081100 -0.000007 -0.000012 0.267945 -0.632857 22.947900 40.985400 -0.000006 -0.000013 2.025990 5.241450 -73.346700 11.754300 -0.000000 0.000003 -0.001301 0.187220 -8.981900 -2.192510 6.469440 -0.000001 -174.487000 11.921600 -176.387000 -39.081100 -0.002282 -0.040193 0.068848 -0.256276 14.340400 -40.985400 0.000008 0.000006 1.944380 1.740290 -70.252900 -11.754300 -0.000006 -0.000006 -0.009560 0.267986 -5.686720
0.000000 0.000000 0.000000 0.000000 0.000000 -0.000000 -2.044940 92.533000 -0.391686 87.066600 2.950760 3.415250 15.735700 0.000005 -0.000001 84.284600 86.416800 -82.281100 8.984550 -0.406207 -0.000000 -0.617031 -0.860029 4.000290 16.377300 -0.000001 -0.000001 5.310950 1.283320 -2.029910 6.456720 -0.000001 -0.000000 -6.761160 0.016735 -0.048633 12.994200 -0.242716 4.980390 -93.359800 10.126600 -71.536400 5.348090 -0.000007 -0.000001 -72.130800 5.470600 -4.744390 24.328600 0.000019 0.000005 8.160000 28.199500 -16.880000 22.291600 -0.000001 0.000005 -4.641550 5.032790 6.614170 12.994500 -0.242716 -4.980390 87.501900 7.233240 -70.888900 -5.348130 -0.000001 -0.000004 -68.051100 30.481900 -6.532440 -24.328900 0.000322 -0.000009 1.213090 4.626850 -14.720900 -22.291500 -0.000108 -0.000004 -1.209660 5.310840 -0.233719 -2.192480 -6.469440 -0.000000 -176.944000 1.245580 -1.856330 39.081100 -0.000007 -0.000012 0.256166 -0.613345 22.668500 40.985400 -0.000006 -0.000013 1.862740 5.387120 -73.156200 11.754300 -0.000000 0.000003 -0.001321 0.187500 -8.970520 -2.192510 6.469440 -0.000001 -174.517000 11.831900 -176.624000 -39.081100 -0.002282 -0.040193 0.062864 -0.236334 14.138700 -40.985400 0.000008 0.000006 1.709670 1.787120 -70.014800 -11.754300 -0.000006 -0.000006 -0.009519 0.267673 -5.699500
0.000000 0.000000 0.000000 0.000000 0.000000 -0.000000 -2.072690 92.581900 -0.543941 87.126000 2.992410 3.162520 15.735700 0.000005 -0.000001 84.038700 86.425900 -81.989100 8.984550 -0.406207 -0.000000 -0.637250 -0.892452 4.092250 16.377300 -0.000001 -0.000001 4.805440 1.351370 -2.276210 6.456720 -0.000001 -0.000000 -7.079020 0.257726 -1.034290 12.994200 -0.242716 4.980390 -93.360100 10.255400 -71.748500 5.348090 -0.000007 -0.000001 -71.323600 2.448700 -5.878310 24.328600 0.000019 0.000005 7.886370 28.735600 -16.072700 22.291600 -0.000001 0.000005 -5.084960 5.019460 6.903090 12.994500 -0.242716 -4.980390 87.538000 7.171070 -70.994500 -5.348130 -0.000001 -0.000004 -68.151900 30.518100 -6.629640 -24.328900 0.000322 -0.000009 1.208640 4.594260 -14.768600 -22.291500 -0.000108 -0.000004 -1.190740 5.309580 -0.197826 -2.192480 -6.469440 -0.000000 -176.937000 1.219250 -2.137570 39.081100 -0.000007 -0.000012 0.240090 -0.581460 22.436600 40.985400 -0.000006 -0.000013 1.687750 5.511920 -72.780600 11.754300 -0.000000 0.000003 -0.001223 0.186160 -9.024980 -2.192510 6.469440 -0.000001 -174.503000 11.793400 -176.903000 -39.081100 -0.002282 -0.040193 0.059313 -0.225531 13.940300 -40.985400 0.000008 0.000006 1.594220 1.768000 -69.776800 -11.754300 -0.000006 -0.000006 -0.009580 0.268137 -5.680540
0.000000 0.000000 0.000000 0.000000 0.000000 -0.000000 -2.095780 92.642900 -0.692365 87.206000 2.984840 2.901420 15.735700 0.000005 -0.000001 84.174200 86.452200 -82.085300 8.984550 -0.406207 -0.000000 -0.687631 -0.874107 4.170410 16.377300 -0.000001 -0.000001 4.281140 1.458480 -2.648220 6.456720 -0.000001 -0.000000 -7.306800 0.482364 -2.010680 12.994200 -0.242716 4.980390 -93.338500 10.304100 -71.938000 5.348090 -0.000007 -0.000001 -70.504100 -0.853001 -6.946240 24.328600 0.000019 0.000005 7.758380 28.352800 -16.007400 22.291600 -0.000001 0.000005 -5.378640 4.985840 7.619360 12.994500 -0.242716 -4.980390 87.584600 7.105180 -71.169300 -5.348130 -0.000001 -0.000004 -68.259000 30.580900 -6.629800 -24.328900 0.000322 -0.000009 1.185220 4.470200 -14.878600 -22.291500 -0.000108 -0.000004 -1.272380 5.309250 -0.188547 -2.192480 -6.469440 -0.000000 -176.948000 1.109300 -2.362680 39.081100 -0.000007 -0.000012 0.223683 -0.549974 22.132700 40.985400 -0.000006 -0.000013 1.406820 5.692260 -72.481000 11.754300 -0.000000 0.000003 -0.001149 0.185135 -9.066660 -2.192510 6.469440 -0.000001 -174.539000 11.822200 -177.135000 -39.081100 -0.002282 -0.040193 0.053766 -0.207461 13.663600 -40.985400 0.000008 0.000006 1.423240 1.875580 -69.533600 -11.754300 -0.000006 -0.000006 -0.009624 0.268475 -5.666720
